{"title":"1939.Battle.of.Westerplatte.2013.480p.WEBRip.x264-Fastbet99","uid":8781031,"size":1100217371,"categoryP":"video","categoryS":"movies","magnet":"?xt=urn:btih:cb5c63ad0b12174ff35770167870c0345e41e233&amp;dn=1939.Battle.of.Westerplatte.2013.480p.WEBRip.x264-Fastbet99&amp;tr=udp%3A%2F%2Ftracker.openbittorrent.com%3A80&amp;tr=udp%3A%2F%2Fopen.demonii.com%3A1337&amp;tr=udp%3A%2F%2Ftracker.coppersurfer.tk%3A6969&amp;tr=udp%3A%2F%2Fexodus.desync.com%3A6969","seeders":1,"leechers":0,"uploader":"Fastbet99","files":-1,"time":1375712095,"description":"1939 Battle of Westerplatte (2013)\n\nIMDB Info\t\t\t\t : http://www.imdb.com/title/tt1808518/\n\nSource\t\t\t\t\t : 720p-REDACTED (Thanks)\nComplete name                            : 1939.Battle.of.Westerplatte.2013.480p.WEBRip.x264-Fastbet99.mp4\nFormat                                   : MPEG-4\nFormat profile                           : Base Media\nCodec ID                                 : isom\nFile size                                : 1.02 GiB\nDuration                                 : 1h 58mn\nOverall bit rate mode                    : Variable\nOverall bit rate                         : 1 236 Kbps\n\nVideo\nID                                       : 1\nFormat                                   : AVC\nFormat/Info                              : Advanced Video Codec\nFormat profile                           : &lt;a class=&quot;__cf_email__&quot; href=&quot;/cdn-cgi/l/email-protection&quot; data-cfemail=&quot;3078595758707c041e01&quot;&gt;[email&amp;#160;protected]&lt;/a&gt;&lt;script cf-hash='f9e31' type=&quot;text/javascript&quot;&gt;\n/* &lt;![CDATA[ */!function(){try{var t=&quot;currentScript&quot;in document?document.currentScript:function(){for(var t=document.getElementsByTagName(&quot;script&quot;),e=t.length;e--;)if(t[e].getAttribute(&quot;cf-hash&quot;))return t[e]}();if(t&amp;&amp;t.previousSibling){var e,r,n,i,c=t.previousSibling,a=c.getAttribute(&quot;data-cfemail&quot;);if(a){for(e=&quot;&quot;,r=parseInt(a.substr(0,2),16),n=2;a.length-n;n+=2)i=parseInt(a.substr(n,2),16)^r,e+=String.fromCharCode(i);e=document.createTextNode(e),c.parentNode.replaceChild(e,c)}}}catch(u){}}();/* ]]&gt; */&lt;/script&gt;\nFormat settings, CABAC                   : Yes\nFormat settings, ReFrames                : 4 frames\nCodec ID                                 : avc1\nCodec ID/Info                            : Advanced Video Coding\nDuration                                 : 1h 58mn\nBit rate                                 : 1 138 Kbps\nMaximum bit rate                         : 10.0 Mbps\nWidth                                    : 848 pixels\nHeight                                   : 416 pixels\nDisplay aspect ratio                     : 16:9\nFrame rate mode                          : Constant\nFrame rate                               : 24.000 fps\nColor space                              : YUV\nChroma subsampling                       : 4:2:0\nBit depth                                : 8 bits\nScan type                                : Progressive\nBits/(Pixel*Frame)                       : 0.134\nStream size                              : 965 MiB (92%)\nWriting library                          : x264 core 133 r2334 a3ac64b\n\n\nAudio\nID                                       : 2\nFormat                                   : AAC\nFormat/Info                              : Advanced Audio Codec\nFormat profile                           : LC\nCodec ID                                 : 40\nDuration                                 : 1h 58mn\nBit rate mode                            : Variable\nBit rate                                 : 96.0 Kbps\nMaximum bit rate                         : 155 Kbps\nChannel(s)                               : 2 channels\nChannel positions                        : Front: L R\nSampling rate                            : 48.0 KHz\nCompression mode                         : Lossy\nStream size                              : 81.2 MiB (8%)\nLanguage                                 : Polish\nEncoder\t\t\t\t\t : Fastbet99\n\nText\t\t\t\t\t : English Hard-coded\n\nScreenshots\n &lt;a href=&quot;\nhttp://lookpic.com/O/i2/1596/sZm0oMuy.jpeg&quot; rel=&quot;nofollow&quot; target=&quot;_NEW&quot;&gt;\nhttp://lookpic.com/O/i2/1596/sZm0oMuy.jpeg&lt;/a&gt;\n\nStairway To heaven - Help People With Keep Seed As Long You Can\n","torrent":{"xt":"urn:btih:cb5c63ad0b12174ff35770167870c0345e41e233","amp;dn":"1939.Battle.of.Westerplatte.2013.480p.WEBRip.x264-Fastbet99","amp;tr":["udp%3A%2F%2Ftracker.openbittorrent.com%3A80","udp%3A%2F%2Fopen.demonii.com%3A1337","udp%3A%2F%2Ftracker.coppersurfer.tk%3A6969","udp%3A%2F%2Fexodus.desync.com%3A6969"],"infoHash":"cb5c63ad0b12174ff35770167870c0345e41e233","infoHashBuffer":{"type":"Buffer","data":[203,92,99,173,11,18,23,79,243,87,112,22,120,112,192,52,94,65,226,51]},"announce":[],"urlList":[]}}